<svg id="Layer_1" data-name="Layer 1" xmlns="http://www.w3.org/2000/svg" viewBox="0 0 560 60"><defs><style>.cls-1{fill:#fff;}</style></defs><title>PL Text SVG 20190810 HM B</title><path class="cls-1" d="M100.23,30.12c0-15.19,11.29-24.3,26.54-24.3,5.46,0,11.28,1.06,15,3.35l2.67,11.9h-.87l-5.21-10.16c-1-1.93-2.54-2.42-4.52-2.92a29.59,29.59,0,0,0-7.13-.8c-11.66,0-22.32,6.88-22.32,22.31C104.39,44,113.5,53,127.07,53a29,29,0,0,0,7.13-.81c2-.49,3.54-1,4.53-2.91l5.21-10.17h.87L142.14,51c-3.72,2.23-9.8,3.34-15.69,3.34C111.51,54.36,100.23,45.38,100.23,30.12Z"/><path class="cls-1" d="M155.23,30.12c0-14.07,10.29-24.3,24.24-24.3s24.24,10.23,24.24,24.3-10.36,24.24-24.25,24.24S155.23,44.13,155.23,30.12Zm44.26,0c0-14.5-9.17-22.93-20-22.93s-20.09,8.43-20.09,22.93S168.55,53,179.47,53,199.49,44.57,199.49,30.12Z"/><path class="cls-1" d="M210.84,52.75l3.22-.18c1.61-.07,2.42-.44,2.42-1.61V12.89l-5.2-6.08V6.69H216l35,40.92V9.42c0-1.18-.81-1.55-2.42-1.61l-3.23-.19V6.69h13v.93l-3.22.19c-1.61.06-2.42.43-2.42,1.61v45.5h-.18L218.16,14.87V51c0,1.17.81,1.54,2.42,1.61l3.23.18v.93h-13Z"/><path class="cls-1" d="M279.22,52.69l3.72-.12c1.55-.07,2.42-.44,2.42-1.61v-43H271.54c-.81,0-1.12.19-1.36.93l-3.73,10.66h-.93l1.62-12.83h40.11l1.67,12.83H308L304.21,8.86c-.25-.74-.56-.93-1.36-.93H289.08V51c0,1.17.81,1.54,2.36,1.61l3.72.12v1H279.22Z"/><path class="cls-1" d="M355.73,52.57l3.22.18v.93H343.64v-.93l3.41-.18c1.8-.13,2.42-.44,2-1.55L342.83,35H324L317.73,51c-.44,1.11.12,1.42,2,1.55l3.41.18v.93h-13v-.93l3.22-.18c1.55-.07,2.17-.5,2.61-1.55L334.1,5.08H335L353.12,51C353.56,52.07,354.12,52.5,355.73,52.57ZM324.61,33.35h17.61l-8.81-22.69Z"/><path class="cls-1" d="M362.37,30.12c0-15.19,11.28-24.3,26.53-24.3,5.46,0,11.29,1.06,15,3.35l2.66,11.9h-.87l-5.2-10.16C399.51,9,398,8.49,396,8a29.59,29.59,0,0,0-7.13-.8c-11.65,0-22.32,6.88-22.32,22.31,0,14.51,9.11,23.5,22.69,23.5a29,29,0,0,0,7.13-.81c2-.49,3.53-1,4.52-2.91l5.21-10.17h.87L404.27,51c-3.72,2.23-9.79,3.34-15.68,3.34C373.65,54.36,362.37,45.38,362.37,30.12Z"/><path class="cls-1" d="M430.07,52.69l3.72-.12c1.55-.07,2.41-.44,2.41-1.61v-43H422.38c-.8,0-1.11.19-1.36.93L417.3,19.52h-.93L418,6.69h40.11l1.68,12.83h-.93L455.06,8.86c-.25-.74-.56-.93-1.37-.93H439.93V51c0,1.17.81,1.54,2.36,1.61l3.72.12v1H430.07Z"/></svg>