<svg id="Layer_1" data-name="Layer 1" xmlns="http://www.w3.org/2000/svg" viewBox="0 0 560 60"><defs><style>.cls-1{fill:#fff;}</style></defs><title>PL Text SVG 20190810 HM B</title><path class="cls-1" d="M163.2,38.42c-2,9.42-8.85,16-20,16-13.52,0-20.93-10.21-20.93-24.44,0-14.43,7.67-24.38,21.13-24.38C154.1,5.59,161,12,163,21.58h-4.55c-1.88-7.86-8.06-11.83-15.14-11.83C134,9.75,126.93,17,126.92,30c0,12.54,6.7,20.28,16.38,20.28,9,0,14-5.72,15.35-11.83Z"/><path class="cls-1" d="M192.9,54.41c-13.39,0-21.58-10.08-21.58-24.44S179.51,5.59,192.9,5.59s21.58,10,21.58,24.38S206.29,54.41,192.9,54.41Zm0-4.16c9.68,0,17-7.35,17-20.28s-7.28-20.22-17-20.22-17,7.28-17,20.22S183.21,50.25,192.9,50.25Z"/><path class="cls-1" d="M254.13,53.56l-25.8-42.44V53.56H224V6.44h6.31L256.08,49V6.44h4.36V53.56Z"/><path class="cls-1" d="M285.79,10.47H269.92v-4H306v4H290.14V53.56h-4.36Z"/><path class="cls-1" d="M325.5,6.44h4.94l17.94,47.12h-4.75l-4.48-11.83H316.72L312.3,53.56h-4.68ZM318.22,37.7h19.37l-9.75-25.87Z"/><path class="cls-1" d="M394.79,38.42c-2,9.42-8.84,16-20,16C361.31,54.41,353.9,44.2,353.9,30c0-14.43,7.68-24.38,21.13-24.38,10.66,0,17.55,6.44,19.56,16H390C388.16,13.72,382,9.75,374.9,9.75c-9.29,0-16.38,7.22-16.38,20.22,0,12.54,6.69,20.28,16.38,20.28,9,0,14-5.72,15.34-11.83Z"/><path class="cls-1" d="M417.47,10.47H401.61v-4h36.08v4H421.83V53.56h-4.36Z"/></svg>