<svg id="Layer_1" data-name="Layer 1" xmlns="http://www.w3.org/2000/svg" viewBox="0 0 560 60"><defs><style>.cls-1{fill:#fff;}</style></defs><title>Patrick Laing</title><path class="cls-1" d="M7.17,52.75l3.23-.18c1.55-.07,2.41-.44,2.41-1.62V9.42c0-1.18-.87-1.55-2.42-1.61L7.18,7.62V6.69h19c10.16,0,19,2.05,19,12.34s-8.87,12.46-19,12.46H18V30.12h7.51c9,0,15.49-2.11,15.5-11S34.58,8,25.53,8h-9V51c0,1.18.81,1.55,2.42,1.62l6.07.12v1H7.17Z"/><path class="cls-1" d="M88.82,52.57l3.23.18v.93H76.73v-.93l3.41-.18c1.8-.13,2.42-.44,2-1.55L75.93,35H57.08L50.82,51c-.44,1.11.12,1.42,2,1.55l3.41.18v.93h-13v-.93l3.23-.18C48,52.5,48.59,52.07,49,51L67.19,5.08h.87L86.22,51C86.65,52.07,87.21,52.5,88.82,52.57ZM57.7,33.35H75.31l-8.8-22.69Z"/><path class="cls-1" d="M103.52,52.69l3.72-.12c1.55-.07,2.42-.44,2.42-1.62v-43H95.83c-.8,0-1.11.18-1.36.93L90.75,19.52h-.93L91.43,6.69h40.11l1.68,12.83h-.93L128.51,8.86c-.25-.75-.56-.93-1.37-.93H113.38V51c0,1.18.8,1.55,2.35,1.62l3.72.12v1H103.52Z"/><path class="cls-1" d="M139,52.75l3.23-.18c1.55-.07,2.42-.44,2.42-1.62V9.42c0-1.18-.87-1.55-2.42-1.61l-3.22-.19V6.69h16.43c10.41,0,18.91,1.92,18.91,11.59,0,8.56-6.89,11.29-15.57,11.72l23.31,23.68h-5.08L154.3,30.43h-6V51c0,1.18.81,1.55,2.42,1.62l3.23.18v.93H139ZM155,29.07c8.74,0,15.31-2,15.31-10.54S163.72,8,155,8h-6.63V29.07Z"/><path class="cls-1" d="M189.26,52.75l3.23-.18c1.55-.07,2.42-.44,2.42-1.62V9.42c0-1.18-.87-1.55-2.42-1.61l-3.22-.19V6.69h14.94v.93L201,7.81c-1.62.06-2.42.43-2.42,1.61V51c0,1.18.81,1.55,2.42,1.62l3.23.18v.93h-15Z"/><path class="cls-1" d="M212.83,30.12c0-15.19,11.28-24.3,26.53-24.3,5.46,0,11.29,1,15,3.35L257,21.07h-.87L251,10.91C250,9,248.41,8.49,246.43,8a29.51,29.51,0,0,0-7.13-.81C227.65,7.18,217,14.07,217,29.5,217,44,226.09,53,239.67,53a29,29,0,0,0,7.13-.81c2-.49,3.53-1,4.52-2.91l5.21-10.17h.87L254.73,51c-3.72,2.23-9.79,3.34-15.68,3.34C224.11,54.36,212.82,45.37,212.83,30.12Z"/><path class="cls-1" d="M264.53,52.75l3.22-.18c1.56-.07,2.42-.44,2.42-1.62V9.42c0-1.18-.87-1.55-2.42-1.61l-3.22-.19V6.69h14.94v.93l-3.23.19c-1.61.06-2.41.43-2.41,1.61V30L297.89,9c.74-.68.25-1.05-1.92-1.17l-3.54-.19V6.69h14.95v.93l-3.23.19c-2.29.12-3.16.37-4.4,1.48L277.62,28.57l31.74,25.11h-5.77L273.83,30.12V51c0,1.18.81,1.55,2.42,1.62l3.22.18v.93H264.53Z"/><path class="cls-1" d="M334,52.75l3.22-.18c1.55-.07,2.42-.44,2.42-1.62V9.42c0-1.18-.87-1.55-2.42-1.61L334,7.62V6.69h14.95v.93l-3.23.19c-1.61.06-2.42.43-2.42,1.61v42.9H363a1.48,1.48,0,0,0,1.62-.87l6.07-9.55h.87l-3.91,11.78H334Z"/><path class="cls-1" d="M420.46,52.57l3.22.18v.93H408.37v-.93l3.41-.18c1.8-.13,2.42-.44,2-1.55L407.56,35H388.72L382.45,51c-.43,1.11.13,1.42,2,1.55l3.41.18v.93h-13v-.93l3.22-.18c1.55-.07,2.17-.5,2.61-1.55L398.83,5.08h.86L417.85,51C418.29,52.07,418.84,52.5,420.46,52.57ZM389.34,33.35h17.6l-8.8-22.69Z"/><path class="cls-1" d="M429.08,52.75l3.22-.18c1.55-.07,2.42-.44,2.42-1.62V9.42c0-1.18-.86-1.55-2.41-1.61l-3.23-.19V6.69H444v.93l-3.22.19c-1.61.06-2.42.43-2.42,1.61V51c0,1.18.8,1.55,2.41,1.62l3.23.18v.93H429.08Z"/><path class="cls-1" d="M450.65,52.75l3.23-.18c1.61-.07,2.41-.44,2.41-1.62V12.89l-5.21-6.08V6.69h4.71l35,40.92V9.42c0-1.18-.8-1.55-2.42-1.61l-3.22-.19V6.69h13v.93l-3.23.19c-1.61.06-2.41.43-2.41,1.61v45.5h-.19L458,14.87V51c0,1.18.8,1.55,2.42,1.62l3.22.18v.93h-13Z"/><path class="cls-1" d="M502.92,30.12c0-15.19,11.41-24.3,26.54-24.3,5.45,0,11.28,1,15,3.35l2.66,11.28h-.74l-5.33-9.54C540,9,538.51,8.49,536.53,8a29.51,29.51,0,0,0-7.13-.81c-11.6,0-22.32,6.82-22.33,22.26C507.07,44,516.31,53,529.51,53c4.59,0,10-.87,14-3.35V35.15c0-1.24-.87-1.68-2.42-1.68l-10-.18V32h21.76v1.43l-5.64.12V45.81l.19,4.21c-5,2.86-12.21,4.34-18.23,4.34C514.2,54.36,502.92,45.37,502.92,30.12Z"/></svg>