<svg id="Layer_1" data-name="Layer 1" xmlns="http://www.w3.org/2000/svg" viewBox="0 0 560 60"><defs><style>.cls-1{fill:#fff;}</style></defs><title>Patrick Laing</title><path class="cls-1" d="M60.7,6.44C72,6.44,80,9,80,20.35S72,34.06,60.69,34.06H50.94v19.5H46.58V6.44Zm-9.76,4V30H61.28c7.73,0,14.17-.91,14.17-9.68s-6.44-10-14.17-10Z"/><path class="cls-1" d="M98,6.44h4.94l17.94,47.12h-4.74l-4.49-11.83H89.23L84.8,53.56H80.12ZM90.72,37.7h19.37l-9.75-25.87Z"/><path class="cls-1" d="M135.44,10.47H119.58v-4h36.08v4H139.8V53.56h-4.35Z"/><path class="cls-1" d="M180.68,32.63a39,39,0,0,1-4,.13h-9.49v20.8h-4.35V6.44h13.85C188,6.44,196,8.39,196,19.37c0,7.93-4.16,11.44-10.73,12.74l11.44,21.45h-4.88ZM167.23,10.4V28.8H177.3c7.74,0,14.11-1,14.11-9.3S185,10.4,177.3,10.4Z"/><path class="cls-1" d="M210.58,53.56h-4.36V6.44h4.35Z"/><path class="cls-1" d="M260.63,38.42c-2,9.42-8.84,16-20,16-13.52,0-20.93-10.21-20.92-24.44,0-14.43,7.67-24.38,21.12-24.38,10.66,0,17.55,6.44,19.57,16h-4.55C254,13.72,247.83,9.75,240.74,9.75c-9.29,0-16.38,7.22-16.38,20.22,0,12.54,6.69,20.28,16.38,20.28,9,0,14-5.72,15.34-11.83Z"/><path class="cls-1" d="M273.5,30.62,297.29,6.44h5.59L283,26.65l20.6,26.91h-5.33L279.94,29.77l-6.44,6.57V53.56h-4.36V6.44h4.35Z"/><path class="cls-1" d="M332.19,49.53h25v4H327.84V6.44h4.36Z"/><path class="cls-1" d="M382.18,6.44h4.94l17.94,47.12h-4.75l-4.48-11.83H373.4L369,53.56H364.3ZM374.9,37.7h19.37l-9.75-25.87Z"/><path class="cls-1" d="M417.28,53.56h-4.36V6.44h4.35Z"/><path class="cls-1" d="M458,53.56l-25.8-42.44V53.56h-4.35V6.44h6.31L459.92,49V6.44h4.36V53.56Z"/><path class="cls-1" d="M513.42,20.61h-4.56c-1.94-7.87-8.51-10.86-15.07-10.86-9.43,0-16.71,7.22-16.71,20.22,0,12.54,6.69,20.28,16.38,20.28,7,0,15.73-2.73,15.73-14.11V34.39H496v-4h17.36v23.2h-3.84l-.06-6.63c-2.86,4.49-7.93,7.48-16.06,7.48-13.52,0-20.93-10.21-20.93-24.44,0-14.43,8-24.38,21.46-24.38C503.93,5.59,511.34,10.79,513.42,20.61Z"/></svg>