<svg id="Layer_1" data-name="Layer 1" xmlns="http://www.w3.org/2000/svg" viewBox="0 0 560 60"><defs><style>.cls-1{fill:#fff;}</style></defs><title>PL Text SVG 20190810 HM B</title><path class="cls-1" d="M85.23,52.66l3.22-.19c1.55-.06,2.42-.43,2.42-1.61V9.32c0-1.17-.87-1.55-2.42-1.61l-3.23-.18V6.6h19c10.16,0,19,2,19,12.33s-8.87,12.47-19,12.47H96.08V30h7.5c9,0,15.5-2.11,15.5-11S112.64,7.9,103.59,7.9H94.53v43c0,1.18.8,1.55,2.42,1.61l6.07.13v1H85.23Z"/><path class="cls-1" d="M129.93,52.66l3.22-.19c1.55-.06,2.42-.43,2.42-1.61V9.32c0-1.17-.87-1.55-2.42-1.61l-3.22-.18V6.6h16.42c10.42,0,18.91,1.92,18.91,11.59,0,8.56-6.88,11.28-15.56,11.72L173,53.59h-5.08L145.18,30.34h-6V50.86c0,1.18.81,1.55,2.42,1.61l3.22.19v.93H129.93ZM145.87,29c8.74,0,15.31-2,15.31-10.54S154.61,7.9,145.87,7.9h-6.64V29Z"/><path class="cls-1" d="M176.62,30c0-14.07,10.29-24.3,24.24-24.3S225.1,16,225.1,30s-10.36,24.24-24.24,24.24S176.62,44,176.62,30Zm44.26,0c0-14.51-9.17-22.94-20-22.94S180.77,15.52,180.77,30,190,52.91,200.86,52.91,220.88,44.48,220.88,30Z"/><path class="cls-1" d="M231.86,52.66l3.22-.19c1.55-.06,2.42-.43,2.42-1.61V9.32c0-1.17-.86-1.55-2.41-1.61l-3.23-.18V6.6h16.25c15.37,0,28.89,6,28.88,23.24s-13.51,23.75-28.76,23.75H231.86Zm16.24-.37c14.14,0,24.68-6,24.68-21.76,0-16.31-10.1-22.63-24.86-22.63h-6.76V52.29Z"/><path class="cls-1" d="M289,35.18V9.32c0-1.17-.81-1.55-2.42-1.61l-3.23-.18V6.6h15v.93l-3.23.18c-1.61.06-2.41.44-2.41,1.61V35.24c0,11,4.65,17.17,15.87,17.17s16.06-6.51,16.06-17.48V9.32c0-1.17-.8-1.55-2.41-1.61L319,7.53V6.6h13v.93l-3.22.18c-1.55.06-2.42.44-2.42,1.61V35.18c0,12.52-6.33,19.09-18.54,19.09S289,48,289,35.18Z"/><path class="cls-1" d="M337.69,30c0-15.19,11.29-24.3,26.54-24.3,5.46,0,11.28,1,15,3.35L381.9,21H381l-5.21-10.17c-1-1.92-2.54-2.42-4.52-2.91a29,29,0,0,0-7.13-.81c-11.66,0-22.32,6.88-22.32,22.32,0,14.51,9.11,23.5,22.68,23.5a29,29,0,0,0,7.13-.81c2-.49,3.54-1,4.53-2.91L381.4,39h.87l-2.67,11.9c-3.72,2.24-9.8,3.35-15.69,3.35C349,54.27,337.69,45.28,337.69,30Z"/><path class="cls-1" d="M405.7,52.6l3.72-.13c1.55-.06,2.42-.43,2.42-1.61v-43H398c-.81,0-1.12.18-1.36.93l-3.72,10.66H392L393.62,6.6h40.11l1.67,12.83h-.93L430.69,8.77c-.25-.75-.56-.93-1.36-.93H415.57v43c0,1.18.81,1.55,2.36,1.61l3.72.13v1H405.7Z"/><path class="cls-1" d="M446,51.79,443.4,39h.87l5,10.35a4.08,4.08,0,0,0,2,2.36,19.17,19.17,0,0,0,7.44,1.3c7.63,0,12.83-4.09,12.83-10,0-6.76-5.14-9.55-12.39-11.91L455.8,30c-7.13-2.29-11.34-6.14-11.34-12.77,0-7.63,7.87-11.47,16.12-11.47a28.83,28.83,0,0,1,10.16,1.73l2.42,11.78h-.93L467.46,10a4,4,0,0,0-3.1-2.48,20.36,20.36,0,0,0-4.53-.44c-6.2,0-12.15,3-12.15,8.93,0,5.21,3,8.12,9.24,10.17l3.22,1c8.43,2.73,14.63,6.08,14.63,14.2,0,7.38-6.51,12.83-16.18,12.83C453.81,54.27,449.54,53.59,446,51.79Z"/></svg>