<svg id="Layer_1" data-name="Layer 1" xmlns="http://www.w3.org/2000/svg" viewBox="0 0 560 60"><defs><style>.cls-1{fill:#fff;}</style></defs><title>PL Text SVG 20190810 HM B</title><path class="cls-1" d="M119.46,6.44c11.31,0,19.3,2.6,19.3,13.91s-8,13.71-19.31,13.71H109.7v19.5h-4.35V6.44Zm-9.75,4V30H120c7.73,0,14.17-.91,14.17-9.68s-6.43-10-14.17-10Z"/><path class="cls-1" d="M164.56,32.63a39,39,0,0,1-4,.13h-9.49v20.8h-4.35V6.44H160.6c11.25,0,19.24,2,19.24,12.93,0,7.93-4.16,11.44-10.73,12.74l11.44,21.45h-4.87ZM151.11,10.4V28.8h10.07c7.74,0,14.11-1,14.11-9.3s-6.37-9.1-14.11-9.1Z"/><path class="cls-1" d="M209,54.41c-13.39,0-21.58-10.08-21.58-24.44S195.63,5.59,209,5.59,230.6,15.6,230.6,30,222.41,54.41,209,54.41Zm0-4.16c9.69,0,17-7.35,17-20.28S218.71,9.75,209,9.75s-17,7.28-17,20.22S199.33,50.25,209,50.25Z"/><path class="cls-1" d="M251.53,6.44c15,0,25.55,5.46,25.55,23.53s-10.54,23.59-25.55,23.59H240.09V6.44Zm-.13,4h-7V49.6h7c10.72,0,21.06-2.21,21.06-19.63S262.13,10.4,251.4,10.4Z"/><path class="cls-1" d="M290.53,6.44V35.3c0,10.14,3.7,15,13.71,15,10.21,0,13.85-5.53,13.85-15.73V6.44h4.36V34c0,13.71-4.82,20.41-18.21,20.41-12.8,0-18.07-5.27-18.06-19.89V6.44Z"/><path class="cls-1" d="M372.11,38.42c-2,9.42-8.85,16-20,16-13.52,0-20.93-10.21-20.93-24.44,0-14.43,7.67-24.38,21.13-24.38,10.66,0,17.55,6.44,19.56,16h-4.55c-1.88-7.86-8.06-11.83-15.14-11.83-9.3,0-16.38,7.22-16.38,20.22,0,12.54,6.69,20.28,16.37,20.28,9,0,14-5.72,15.35-11.83Z"/><path class="cls-1" d="M392.84,10.47H377v-4h36.08v4H397.2V53.56h-4.35Z"/><path class="cls-1" d="M436,5.59c9.23,0,15.86,4.62,17.55,12.61H449c-1.62-5.46-6.3-8.45-13.45-8.45-4.75,0-11.44,1.89-11.44,8.06,0,4.75,3.83,7.15,9.1,8.32l5.59,1.24c6.82,1.56,15.86,4.29,15.85,13.26s-8.25,13.78-17.42,13.78c-11.76,0-18.26-6.57-19.3-15h4.55c1.62,7.48,6.89,10.86,14.56,10.86,5.13,0,13.06-1.89,13.06-8.91,0-5.78-5.59-8.45-12.22-9.88L432,30.16c-6.18-1.43-12.35-4.42-12.35-12.15C419.62,9.3,428.4,5.59,436,5.59Z"/></svg>