<svg id="Layer_1" data-name="Layer 1" xmlns="http://www.w3.org/2000/svg" viewBox="0 0 560 60"><defs><style>.cls-1{fill:#fff;}</style></defs><title>PL Text SVG 20190810 HM B</title><path class="cls-1" d="M167,52.38l3.22-.19c1.55-.06,2.42-.43,2.42-1.61V9.05c0-1.18-.87-1.55-2.42-1.62L167,7.25V6.32h16.42c10.42,0,18.91,1.92,18.91,11.59,0,8.56-6.88,11.28-15.56,11.72L210,53.31H205L182.2,30.06h-6V50.58c0,1.18.81,1.55,2.42,1.61l3.23.19v.93H167ZM182.88,28.7c8.74,0,15.31-2,15.31-10.54S191.62,7.62,182.88,7.62h-6.64V28.7Z"/><path class="cls-1" d="M216.23,52.38l3.23-.19c1.55-.06,2.42-.43,2.42-1.61V9.05c0-1.18-.87-1.55-2.42-1.62l-3.23-.18V6.32h14.94v.93L228,7.43c-1.61.07-2.42.44-2.42,1.62V50.58c0,1.18.81,1.55,2.42,1.61l3.22.19v.93H216.23Z"/><path class="cls-1" d="M238.12,52.38l3.22-.19c1.62-.06,2.42-.43,2.42-1.61V12.52l-5.21-6.08V6.32h4.72l35,40.91V9.05c0-1.18-.8-1.55-2.41-1.62l-3.23-.18V6.32h13v.93l-3.22.18c-1.62.07-2.42.44-2.42,1.62v45.5h-.19l-34.34-40V50.58c0,1.18.8,1.55,2.41,1.61l3.23.19v.93h-13Z"/><path class="cls-1" d="M290.39,29.75c0-15.19,11.4-24.3,26.53-24.3,5.46,0,11.28,1,15,3.35l2.67,11.28h-.74l-5.34-9.55C327.46,8.61,326,8.12,324,7.62a29.51,29.51,0,0,0-7.13-.81c-11.6,0-22.32,6.82-22.32,22.26,0,14.57,9.24,23.56,22.44,23.56,4.59,0,10-.87,14-3.35V34.77c0-1.24-.86-1.67-2.41-1.67l-10.05-.19v-1.3h21.76V33l-5.64.12V45.44l.19,4.21c-5,2.85-12.22,4.34-18.23,4.34C301.67,54,290.39,45,290.39,29.75Z"/><path class="cls-1" d="M349,51.51l-2.61-12.83h.87l5,10.35a4.06,4.06,0,0,0,2,2.36,19.09,19.09,0,0,0,7.43,1.3c7.63,0,12.84-4.09,12.84-10,0-6.76-5.15-9.55-12.4-11.91l-3.29-1c-7.13-2.29-11.34-6.14-11.34-12.77,0-7.63,7.87-11.47,16.12-11.47a28.65,28.65,0,0,1,10.16,1.74L376.19,19h-.93l-4.77-9.23a4,4,0,0,0-3.1-2.48,20.42,20.42,0,0,0-4.53-.44c-6.2,0-12.15,3-12.15,8.93,0,5.21,3,8.12,9.24,10.17L363.17,27c8.43,2.73,14.63,6.08,14.63,14.2,0,7.38-6.51,12.83-16.18,12.83C356.85,54,352.57,53.31,349,51.51Z"/></svg>