<svg id="Layer_1" data-name="Layer 1" xmlns="http://www.w3.org/2000/svg" viewBox="0 0 560 60"><defs><style>.cls-1{fill:#fff;}</style></defs><title>PL Text SVG 20190810 HM B</title><path class="cls-1" d="M203.3,32.63a39,39,0,0,1-4,.13h-9.49v20.8h-4.35V6.44h13.84c11.24,0,19.24,2,19.24,12.93,0,7.93-4.16,11.44-10.73,12.74l11.44,21.45h-4.87ZM189.85,10.4V28.8h10.07c7.74,0,14.11-1,14.11-9.3s-6.37-9.1-14.11-9.1Z"/><path class="cls-1" d="M232.87,53.56h-4.35V6.44h4.36Z"/><path class="cls-1" d="M273.89,53.56l-25.8-42.44V53.56h-4.35V6.44H250L275.84,49V6.44h4.36V53.56Z"/><path class="cls-1" d="M329.66,20.61h-4.55C323.16,12.74,316.6,9.75,310,9.75c-9.42,0-16.7,7.22-16.7,20.22,0,12.54,6.69,20.28,16.37,20.28,7,0,15.74-2.73,15.74-14.11V34.39h-13.2v-4H329.6v23.2h-3.83l-.06-6.63c-2.87,4.49-7.94,7.48-16.06,7.48-13.52,0-20.93-10.21-20.93-24.44,0-14.43,8-24.38,21.45-24.38C320.17,5.59,327.58,10.79,329.66,20.61Z"/><path class="cls-1" d="M355.86,5.59c9.23,0,15.86,4.62,17.55,12.61h-4.55c-1.63-5.46-6.31-8.45-13.46-8.45-4.74,0-11.44,1.89-11.44,8.06,0,4.75,3.84,7.15,9.1,8.32l5.59,1.24c6.83,1.56,15.86,4.29,15.86,13.26s-8.26,13.78-17.42,13.78c-11.77,0-18.27-6.57-19.31-15h4.55c1.63,7.48,6.89,10.86,14.56,10.86,5.14,0,13.07-1.89,13.07-8.91,0-5.78-5.59-8.45-12.22-9.88l-5.91-1.3c-6.18-1.43-12.35-4.42-12.35-12.15C339.48,9.3,348.25,5.59,355.86,5.59Z"/></svg>